<?xml version="1.0" encoding="UTF-8" standalone="no"?>
<!DOCTYPE svg PUBLIC "-//W3C//DTD SVG 1.1//EN" "http://www.w3.org/Graphics/SVG/1.1/DTD/svg11.dtd">
<svg width="100%" height="100%" viewBox="0 0 64 64" version="1.1" xmlns="http://www.w3.org/2000/svg" xmlns:xlink="http://www.w3.org/1999/xlink" xml:space="preserve" xmlns:serif="http://www.serif.com/" style="fill-rule:evenodd;clip-rule:evenodd;stroke-linejoin:round;stroke-miterlimit:2;">
    <g id="iconos" transform="matrix(1,0,0,0.8,0,0)">
        <rect x="0" y="0" width="64" height="80" style="fill:none;"/>
        <clipPath id="_clip1">
            <rect x="0" y="0" width="64" height="80"/>
        </clipPath>
        <g clip-path="url(#_clip1)">
            <g transform="matrix(0.657838,0,0,0.822298,-0.908783,-1.11281)">
                <g id="FAMILY">
                    <path d="M6.1,61.55C8.249,61.552 10.141,60.083 10.67,58L12.75,49.79L12.75,95.32C12.75,96.143 13.427,96.82 14.25,96.82L36.06,96.82C36.883,96.82 37.56,96.143 37.56,95.32L37.56,38.24C37.56,37.417 36.883,36.74 36.06,36.74C35.237,36.74 34.56,37.417 34.56,38.24L34.56,93.82L26.65,93.82L26.65,66.43C26.65,65.607 25.973,64.93 25.15,64.93C24.327,64.93 23.65,65.607 23.65,66.43L23.65,93.82L15.75,93.82L15.75,38.24C15.756,38.16 15.756,38.08 15.75,38C15.756,37.944 15.759,37.888 15.759,37.832C15.759,37.009 15.082,36.332 14.259,36.332C13.595,36.332 13.007,36.773 12.82,37.41L7.82,57.27C7.636,58.037 6.944,58.582 6.155,58.582C5.216,58.582 4.443,57.809 4.443,56.87C4.443,56.735 4.459,56.601 4.49,56.47L8,40.63C9.807,32.665 16.947,26.963 25.115,26.963C33.283,26.963 40.423,32.665 42.23,40.63C44.037,48.595 42.23,40.7 42.23,40.74C41.817,41.751 41.605,42.832 41.605,43.923C41.605,48.543 45.406,52.343 50.025,52.343C54.644,52.343 58.445,48.543 58.445,43.923C58.445,42.832 58.233,41.751 57.82,40.74C57.407,39.729 57.82,40.67 57.82,40.63C59.627,32.665 66.767,26.963 74.935,26.963C83.103,26.963 90.243,32.665 92.05,40.63L95.55,55.5C95.592,55.684 95.614,55.872 95.614,56.06C95.614,57.431 94.485,58.56 93.114,58.56L92.5,58.56L87.41,37.88C87.267,37.186 86.65,36.684 85.941,36.684C85.118,36.684 84.441,37.361 84.441,38.184C84.441,38.324 84.461,38.465 84.5,38.6L91.5,66.93L62.6,66.93L62.6,64.82C62.599,63.143 62.259,61.482 61.6,59.94L65.6,38.52C65.601,38.496 65.602,38.472 65.602,38.447C65.602,37.624 64.925,36.947 64.102,36.947C63.447,36.947 62.865,37.375 62.67,38L59.23,56.31C56.869,53.765 53.551,52.317 50.08,52.317C43.234,52.317 37.6,57.951 37.6,64.797C37.6,64.805 37.6,64.812 37.6,64.82L37.6,77.32C37.6,78.143 38.277,78.82 39.1,78.82L42.76,78.82L44.61,95.49C44.696,96.244 45.341,96.82 46.1,96.82L54.1,96.82C54.859,96.82 55.504,96.244 55.59,95.49L57.44,78.82L61.1,78.82C61.923,78.82 62.6,78.143 62.6,77.32L62.6,69.93L62.6,95.32C62.6,96.143 63.277,96.82 64.1,96.82L86,96.82C86.823,96.82 87.5,96.143 87.5,95.32L87.5,69.93L93.44,69.93C93.441,69.93 93.443,69.93 93.444,69.93C94.267,69.93 94.944,69.253 94.944,68.43C94.944,68.309 94.929,68.188 94.9,68.07L93.29,61.55C96.26,61.49 98.67,59.031 98.67,56.061C98.67,55.647 98.623,55.234 98.53,54.83L95.09,40C93.144,31.225 85.624,24.717 76.66,24.05C81.752,23.257 85.545,18.828 85.545,13.675C85.545,7.915 80.805,3.175 75.045,3.175C69.285,3.175 64.545,7.915 64.545,13.675C64.545,18.828 68.338,23.257 73.43,24.05C65.362,24.651 58.382,29.997 55.7,37.63C52.533,34.779 47.667,34.779 44.5,37.63C41.816,29.994 34.832,24.647 26.76,24.05C31.852,23.257 35.645,18.828 35.645,13.675C35.645,7.915 30.905,3.175 25.145,3.175C19.385,3.175 14.645,7.915 14.645,13.675C14.645,18.828 18.438,23.257 23.53,24.05C14.57,24.721 7.055,31.228 5.11,40L1.5,55.8C1.421,56.144 1.381,56.497 1.381,56.85C1.381,59.434 3.508,61.56 6.091,61.56C6.094,61.56 6.097,61.56 6.1,61.56L6.1,61.55ZM59.6,75.82L56.1,75.82C55.341,75.82 54.696,76.396 54.61,77.15L52.76,93.82L47.44,93.82L45.59,77.15C45.504,76.396 44.859,75.82 44.1,75.82L40.6,75.82L40.6,64.82C40.6,59.608 44.888,55.32 50.1,55.32C55.312,55.32 59.6,59.608 59.6,64.82L59.6,75.82ZM65.6,93.82L65.6,69.93L73.29,69.93L73.29,93.82L65.6,93.82ZM84.41,93.82L76.33,93.82L76.33,69.93L84.45,69.93L84.41,93.82ZM67.55,13.69C67.55,9.576 70.936,6.19 75.05,6.19C79.164,6.19 82.55,9.576 82.55,13.69C82.55,17.804 79.164,21.19 75.05,21.19C70.938,21.185 67.555,17.802 67.55,13.69ZM50.1,38.48C53.073,38.48 55.52,40.927 55.52,43.9C55.52,46.873 53.073,49.32 50.1,49.32C47.127,49.32 44.68,46.873 44.68,43.9C44.68,40.927 47.127,38.48 50.1,38.48ZM17.65,13.69C17.65,9.576 21.036,6.19 25.15,6.19C29.264,6.19 32.65,9.576 32.65,13.69C32.65,17.804 29.264,21.19 25.15,21.19C21.038,21.185 17.655,17.802 17.65,13.69Z" style="fill:rgb(44,44,148);fill-rule:nonzero;"/>
                </g>
            </g>
        </g>
    </g>
</svg>
