<?xml version="1.0" encoding="UTF-8" standalone="no"?>
<!DOCTYPE svg PUBLIC "-//W3C//DTD SVG 1.1//EN" "http://www.w3.org/Graphics/SVG/1.1/DTD/svg11.dtd">
<svg width="100%" height="100%" viewBox="0 0 64 64" version="1.1" xmlns="http://www.w3.org/2000/svg" xmlns:xlink="http://www.w3.org/1999/xlink" xml:space="preserve" xmlns:serif="http://www.serif.com/" style="fill-rule:evenodd;clip-rule:evenodd;stroke-linejoin:round;stroke-miterlimit:2;">
    <g id="iconos" transform="matrix(1,0,0,0.8,0,0)">
        <rect x="0" y="0" width="64" height="80" style="fill:none;"/>
        <clipPath id="_clip1">
            <rect x="0" y="0" width="64" height="80"/>
        </clipPath>
        <g clip-path="url(#_clip1)">
            <g transform="matrix(0.695652,0,0,0.913572,-2.78261,-875.73)">
                <g id="RUC10">
                    <path d="M17.469,963.362L17.156,963.8L4.156,983.8L4,984.05L4,989.362C4,993.839 6.944,997.65 11,998.925L11,1040.36C11,1040.91 11.451,1041.36 12,1041.36L88,1041.36C88.549,1041.36 89,1040.91 89,1040.36L89,998.925C93.056,997.65 96,993.839 96,989.362L96,984.05L95.844,983.8L82.844,963.8L82.531,963.362L17.469,963.362ZM18.531,965.362L81.469,965.362L94,984.643L94,989.362C94,993.811 90.449,997.362 86,997.362C81.551,997.362 78,993.811 78,989.362L76,989.362C76,993.811 72.449,997.362 68,997.362C63.551,997.362 60,993.811 60,989.362L58,989.362C58,993.811 54.449,997.362 50,997.362C45.551,997.362 42,993.811 42,989.362L40,989.362C40,993.811 36.449,997.362 32,997.362C27.551,997.362 24,993.811 24,989.362L22,989.362C22,993.811 18.449,997.362 14,997.362C9.551,997.362 6,993.811 6,989.362L6,984.643L18.531,965.362ZM23,993.55C24.597,996.95 27.995,999.362 32,999.362C36.005,999.362 39.403,996.95 41,993.55C42.597,996.95 45.995,999.362 50,999.362C54.005,999.362 57.403,996.95 59,993.55C60.597,996.95 63.995,999.362 68,999.362C72.005,999.362 75.403,996.95 77,993.55C78.597,996.95 81.995,999.362 86,999.362C86.335,999.362 86.674,999.363 87,999.331L87,1039.36L45,1039.36L45,1008.36C45,1007.81 44.549,1007.36 44,1007.36L24,1007.36C23.451,1007.36 23,1007.81 23,1008.36L23,1039.36L13,1039.36L13,999.331C13.326,999.363 13.665,999.362 14,999.362C18.005,999.362 21.403,996.95 23,993.55ZM54,1007.36C53.451,1007.36 53,1007.81 53,1008.36L53,1022.36C53,1022.91 53.451,1023.36 54,1023.36L76,1023.36C76.549,1023.36 77,1022.91 77,1022.36L77,1008.36C77,1007.81 76.549,1007.36 76,1007.36L54,1007.36ZM25,1009.36L43,1009.36L43,1039.36L25,1039.36L25,1009.36ZM55,1009.36L75,1009.36L75,1021.36L55,1021.36L55,1009.36Z" style="fill:rgb(44,44,148);fill-rule:nonzero;stroke:rgb(44,44,148);stroke-width:1.4px;"/>
                </g>
            </g>
        </g>
    </g>
</svg>
