<?xml version="1.0" encoding="UTF-8" standalone="no"?>
<!DOCTYPE svg PUBLIC "-//W3C//DTD SVG 1.1//EN" "http://www.w3.org/Graphics/SVG/1.1/DTD/svg11.dtd">
<svg width="100%" height="100%" viewBox="0 0 64 64" version="1.1" xmlns="http://www.w3.org/2000/svg" xmlns:xlink="http://www.w3.org/1999/xlink" xml:space="preserve" xmlns:serif="http://www.serif.com/" style="fill-rule:evenodd;clip-rule:evenodd;stroke-linejoin:round;stroke-miterlimit:2;">
    <g id="iconos" transform="matrix(1,0,0,0.8,0,0)">
        <rect x="0" y="0" width="64" height="80" style="fill:none;"/>
        <g transform="matrix(0.930484,0,0,0.95255,-12.6632,-5.72239)">
            <g id="RUC20">
                <path d="M15.53,7.58L15.53,88.42L80.47,88.42L80.47,37.42L63.47,29.76L63.47,7.58L15.53,7.58ZM18.53,85.42L18.53,10.58L60.53,10.58L60.53,28.37L48,22.75L48,85.42L18.53,85.42ZM67.91,85.42L60.59,85.42L60.59,68.23L67.91,68.23L67.91,85.42ZM77.47,85.42L70.91,85.42L70.91,65.23L57.59,65.23L57.59,85.42L51,85.42L51,27.42L77.47,39.32L77.47,85.42ZM31.13,72L34.13,72L34.13,78.65L31.13,78.65L31.13,72ZM38,72L41,72L41,78.65L38,78.65L38,72ZM24.45,72L27.45,72L27.45,78.65L24.45,78.65L24.45,72ZM31.13,58.45L34.13,58.45L34.13,65.1L31.13,65.1L31.13,58.45ZM37.97,58.45L40.97,58.45L40.97,65.1L38,65.1L37.97,58.45ZM24.45,58.45L27.45,58.45L27.45,65.1L24.45,65.1L24.45,58.45ZM31.13,44.9L34.13,44.9L34.13,51.56L31.13,51.56L31.13,44.9ZM37.97,44.9L40.97,44.9L40.97,51.56L38,51.56L37.97,44.9ZM24.45,44.9L27.45,44.9L27.45,51.56L24.45,51.56L24.45,44.9ZM66.13,48.56L63.13,48.56L63.13,41.9L66.13,41.9L66.13,48.56ZM72.97,48.56L70,48.56L70,41.9L73,41.9L72.97,48.56ZM59.45,48.56L56.45,48.56L56.45,41.9L59.45,41.9L59.45,48.56ZM66.13,59.56L63.13,59.56L63.13,52.9L66.13,52.9L66.13,59.56ZM72.97,59.56L70,59.56L70,52.9L73,52.9L72.97,59.56ZM59.45,59.56L56.45,59.56L56.45,52.9L59.45,52.9L59.45,59.56ZM31.13,31.36L34.13,31.36L34.13,38L31.13,38L31.13,31.36ZM37.97,31.36L40.97,31.36L40.97,38L38,38L37.97,31.36ZM24.45,31.36L27.45,31.36L27.45,38L24.45,38L24.45,31.36ZM31.13,17.36L34.13,17.36L34.13,24L31.13,24L31.13,17.36ZM37.97,17.36L40.97,17.36L40.97,24L38,24L37.97,17.36ZM24.45,17.36L27.45,17.36L27.45,24L24.45,24L24.45,17.36Z" style="fill:rgb(44,44,148);fill-rule:nonzero;"/>
            </g>
        </g>
    </g>
</svg>
