<?xml version="1.0" encoding="UTF-8" standalone="no"?>
<!DOCTYPE svg PUBLIC "-//W3C//DTD SVG 1.1//EN" "http://www.w3.org/Graphics/SVG/1.1/DTD/svg11.dtd">
<svg width="100%" height="100%" viewBox="0 0 64 64" version="1.1" xmlns="http://www.w3.org/2000/svg" xmlns:xlink="http://www.w3.org/1999/xlink" xml:space="preserve" xmlns:serif="http://www.serif.com/" style="fill-rule:evenodd;clip-rule:evenodd;stroke-linejoin:round;stroke-miterlimit:2;">
    <g id="iconos" transform="matrix(1,0,0,0.8,0,0)">
        <rect x="0" y="0" width="64" height="80" style="fill:none;"/>
        <clipPath id="_clip1">
            <rect x="0" y="0" width="64" height="80"/>
        </clipPath>
        <g clip-path="url(#_clip1)">
            <g transform="matrix(0.743586,0,0,0.929482,-3.69126,-4.61533)">
                <g id="SCTR">
                    <path d="M44.745,43.851C39.276,43.851 34.775,48.352 34.775,53.821C34.775,59.29 39.276,63.791 44.745,63.791C50.214,63.791 54.715,59.29 54.715,53.821C54.715,53.821 54.715,53.82 54.715,53.82C54.709,48.353 50.212,43.856 44.745,43.851ZM44.745,61.778C44.744,61.778 44.743,61.778 44.742,61.778C40.376,61.778 36.784,58.186 36.784,53.82C36.784,49.454 40.376,45.862 44.742,45.862C49.108,45.862 52.7,49.454 52.7,53.82C52.695,58.183 49.108,61.771 44.745,61.778ZM90.2,28.592C90.316,27.97 90.206,27.326 89.89,26.777L84.157,16.847C84.035,16.636 83.841,16.476 83.61,16.397C75.412,13.616 66.519,13.636 58.333,16.452C58.104,16.531 57.911,16.69 57.79,16.9L51.954,27.013C51.635,27.567 51.527,28.217 51.648,28.844C51.83,29.777 52.046,30.703 52.296,31.621C51.284,31.403 50.26,31.229 49.231,31.1L49.231,29.26C49.231,26.799 47.206,24.774 44.745,24.774C42.284,24.774 40.259,26.799 40.259,29.26L40.259,31.1C22.476,33.352 8.995,48.646 8.994,66.572L8.994,73.3C7.098,73.763 5.753,75.475 5.753,77.427C5.753,79.757 7.67,81.675 10,81.675L79.491,81.675C79.492,81.675 79.493,81.675 79.493,81.675C81.824,81.675 83.741,79.757 83.741,77.427C83.741,75.475 82.396,73.763 80.5,73.3L80.5,66.572C80.514,61.242 79.324,55.977 77.017,51.172C83.879,45.389 88.537,37.41 90.2,28.592ZM42.269,29.26C42.269,29.243 42.269,29.227 42.269,29.21C42.269,27.853 43.385,26.736 44.743,26.736C46.1,26.736 47.217,27.853 47.217,29.21C47.217,29.227 47.216,29.243 47.216,29.26L47.216,37.116C47.216,37.133 47.217,37.149 47.217,37.166C47.217,38.523 46.1,39.64 44.743,39.64C43.385,39.64 42.269,38.523 42.269,37.166C42.269,37.149 42.269,37.133 42.269,37.116L42.269,29.26ZM11.006,73.179L11.006,68.7L78.484,68.7L78.484,73.182L11.006,73.179ZM81.726,77.427C81.725,78.653 80.717,79.661 79.491,79.663L10,79.663C8.773,79.663 7.764,78.654 7.764,77.427C7.764,76.2 8.773,75.191 10,75.191L79.491,75.191C80.717,75.193 81.725,76.201 81.726,77.427ZM78.484,66.572L78.484,66.684L11.006,66.684L11.006,66.572C10.944,49.728 23.557,35.309 40.259,33.13L40.259,37.116C40.259,39.577 42.284,41.602 44.745,41.602C47.206,41.602 49.231,39.577 49.231,37.116L49.231,33.13C50.491,33.298 51.741,33.536 52.975,33.845C55.871,42.383 61.631,49.663 69.275,54.445C70.269,55.06 71.531,55.06 72.525,54.445C73.516,53.827 74.473,53.167 75.397,52.464C77.443,56.885 78.497,61.701 78.484,66.572ZM71.46,52.733C71.118,52.945 70.684,52.945 70.342,52.733C61.655,47.306 55.597,38.512 53.624,28.461C53.594,28.31 53.62,28.153 53.697,28.019L59.347,18.234C66.893,15.723 75.051,15.705 82.608,18.183L88.151,27.783C88.227,27.916 88.253,28.072 88.225,28.222C86.305,38.37 80.221,47.264 71.46,52.733ZM80.747,28.388C80.936,28.577 81.042,28.833 81.042,29.1C81.042,29.366 80.936,29.622 80.747,29.811L69.716,40.842C69.527,41.031 69.271,41.137 69.004,41.137C68.738,41.137 68.482,41.031 68.293,40.842L61.1,33.65C60.911,33.461 60.805,33.205 60.805,32.939C60.805,32.387 61.26,31.932 61.812,31.932C62.078,31.932 62.334,32.038 62.523,32.227L69,38.708L79.32,28.388C79.509,28.198 79.766,28.091 80.034,28.091C80.301,28.091 80.558,28.198 80.747,28.388Z" style="fill:rgb(44,44,148);fill-rule:nonzero;stroke:rgb(44,44,148);stroke-width:1.61px;"/>
                </g>
            </g>
        </g>
    </g>
</svg>
